Coordinates
version=1
nRows=8
nColumns=36
inDegrees=yes

Units are S.I. units (second, meters, Newtons, ...)
If the header above contains a line with 'inDegrees', this indicates whether rotational values are in degrees (yes) or radians (no).

endheader
time	pelvis_tilt	pelvis_list	pelvis_rotation	pelvis_tx	pelvis_ty	pelvis_tz	hip_flexion_r	hip_adduction_r	hip_rotation_r	knee_angle_r	knee_angle_r_beta	ankle_angle_r	subtalar_angle_r	mtp_angle_r	hip_flexion_l	hip_adduction_l	hip_rotation_l	knee_angle_l	knee_angle_l_beta	ankle_angle_l	subtalar_angle_l	mtp_angle_l	lumbar_extension	lumbar_bending	lumbar_rotation	arm_flex_r	arm_add_r	arm_rot_r	elbow_flex_r	pro_sup_r	arm_flex_l	arm_add_l	arm_rot_l	elbow_flex_l	pro_sup_l
      4.31666670	     -6.99489501	     -1.28687751	      5.98299270	      0.44599592	      0.91738551	      0.01879381	      1.37783644	     -3.25823923	     -2.08210565	      0.52347403	      0.00913635	      3.30568440	    -22.67857973	     -7.49999987	      1.13863435	     -6.68751566	     -0.62916129	      0.40100988	      0.00699894	      7.49454489	     -6.76232218	     -7.49999987	      5.67930169	      0.54653086	      0.26060162	      3.41121263	    -14.00568941	     15.99277786	     29.04294287	     62.22522105	   -177.45474002	   -166.88291702	   -164.19488821	     23.64853343	     61.19984971
      4.32083330	     -6.46831787	     -1.24236492	      6.07256272	      0.44541429	      0.92015716	      0.01843150	      0.79329229	     -3.21936054	     -2.11551905	      0.49022444	      0.00855603	      3.10069491	    -22.84417163	     -7.49999987	      0.60021668	     -6.69340356	     -0.40729366	      0.37758281	      0.00659006	      7.44125891	     -6.75281514	     -7.49999987	      4.57657291	      0.49130608	      0.24030509	      3.82366023	    -14.30220074	     15.77429080	     29.45164757	     62.24614127	   -177.03938688	   -166.78240853	   -164.71776391	     23.73481072	     61.67443586
      4.32500000	     -6.39031001	     -1.23388884	      6.13329530	      0.44517092	      0.92277456	      0.01788112	      0.69363502	     -3.22685955	     -2.26482913	      0.48260667	      0.00842308	      3.12466648	    -22.69216601	     -7.49999987	      0.54118224	     -6.68905393	     -0.33347394	      0.36659351	      0.00639826	      7.44639736	     -6.58071935	     -7.49999987	      4.30587468	      0.43699330	      0.24923679	      4.06111630	    -14.49032780	     15.55025342	     29.44547508	     62.23596602	   -176.79466471	   -166.71417190	   -165.16164792	     23.58605953	     62.04315510
      4.32916670	     -6.24054777	     -1.22200995	      6.15906109	      0.44329387	      0.92530200	      0.01971090	      0.56376928	     -3.21493517	     -2.28463270	      0.47329618	      0.00826058	      3.08666658	    -22.62711508	     -7.49999987	      0.41619836	     -6.70235229	     -0.23971701	      0.35804891	      0.00624913	      7.36152098	     -6.62598070	     -7.49999987	      3.87808288	      0.40154577	      0.27715139	      4.40874078	    -14.66373783	     15.37163707	     29.38104070	     62.21187664	   -176.46408407	   -166.67875924	   -165.43976988	     23.41915310	     62.23097071
      4.33333330	     -6.29147831	     -1.22624078	      6.19750966	      0.44231999	      0.92402747	      0.02040894	      0.66500044	     -3.19813789	     -2.28715260	      0.46585204	      0.00813065	      2.99879518	    -22.62638607	     -7.49999987	      0.53003235	     -6.72170650	     -0.18498113	      0.35385981	      0.00617602	      7.29443638	     -6.57725124	     -7.49999987	      3.74316590	      0.34599436	      0.31545141	      4.69965925	    -14.84661565	     15.31857441	     29.34788915	     62.22350446	   -176.24136198	   -166.57328752	   -165.51044701	     23.34400712	     62.26085672
      4.33750000	     -6.31091350	     -1.21229178	      6.20192979	      0.44150688	      0.92724445	      0.02077033	      0.74344072	     -3.20604722	     -2.34565024	      0.45421994	      0.00792763	      2.95562217	    -22.57606301	     -7.49999987	      0.60420475	     -6.72054544	     -0.14482108	      0.35793759	      0.00624719	      7.23159730	     -6.54407973	     -7.49999987	      3.54119247	      0.32219452	      0.33461947	      4.99684676	    -15.03021478	     15.26436858	     29.34243929	     62.22697771	   -175.97090947	   -166.45277405	   -165.56976153	     23.31123130	     62.27181518
      4.34166670	     -5.86858475	     -1.16685960	      6.20000446	      0.44064514	      0.92784908	      0.02148516	      0.32976793	     -3.17060337	     -2.38392985	      0.43178367	      0.00753605	      2.87636245	    -22.48169447	     -7.49999987	      0.17112683	     -6.73991942	     -0.11511715	      0.35335781	      0.00616726	      7.13308142	     -6.59524419	     -7.49999987	      2.58911438	      0.27773827	      0.41747305	      5.57353499	    -15.11468154	     14.93930548	     29.02163704	     62.09547844	   -175.26344237	   -166.54890807	   -165.90131671	     22.68586449	     62.14800056
      4.34583330	     -5.52801484	     -1.13014886	      6.23219167	      0.44058225	      0.92145099	      0.02276439	      0.00393232	     -3.13177321	     -2.55385121	      0.40756812	      0.00711341	      3.00333285	    -22.21417351	     -7.49999987	     -0.14125604	     -6.77803816	     -0.14046503	      0.35094384	      0.00612513	      7.13299376	     -6.63440540	     -7.49999987	      1.81678606	      0.24731053	      0.46176762	      5.95287760	    -15.34704332	     14.73712641	     29.25001021	     62.15058772	   -174.96639448	   -166.42149960	   -166.23484352	     22.96302241	     62.15066711
